<?xml version="1.0" encoding="UTF-8" standalone="no"?>
<svg
   xmlns:dc="http://purl.org/dc/elements/1.1/"
   xmlns:cc="http://creativecommons.org/ns#"
   xmlns:rdf="http://www.w3.org/1999/02/22-rdf-syntax-ns#"
   xmlns:svg="http://www.w3.org/2000/svg"
   xmlns="http://www.w3.org/2000/svg"
   xmlns:sodipodi="http://sodipodi.sourceforge.net/DTD/sodipodi-0.dtd"
   xmlns:inkscape="http://www.inkscape.org/namespaces/inkscape"
   viewBox="0 0 256 256"
   id="svg2"
   version="1.1"
   inkscape:version="0.91 r13725"
   sodipodi:docname="mr-webrtc.svg"
   width="256"
   height="256"
   inkscape:export-filename="H:\mrtk\mr-webrtc\docs\mr-webrtc_icon.png"
   inkscape:export-xdpi="16.879999"
   inkscape:export-ydpi="16.879999">
  <metadata
     id="metadata76">
    <rdf:RDF>
      <cc:Work
         rdf:about="">
        <dc:format>image/svg+xml</dc:format>
        <dc:type
           rdf:resource="http://purl.org/dc/dcmitype/StillImage" />
        <dc:title>MRTK_Logo_WhiteOnBlack</dc:title>
      </cc:Work>
    </rdf:RDF>
  </metadata>
  <sodipodi:namedview
     pagecolor="#ffffff"
     bordercolor="#666666"
     borderopacity="1"
     objecttolerance="10"
     gridtolerance="10"
     guidetolerance="10"
     inkscape:pageopacity="0"
     inkscape:pageshadow="2"
     inkscape:window-width="2560"
     inkscape:window-height="1377"
     id="namedview74"
     showgrid="false"
     inkscape:zoom="2"
     inkscape:cx="97.43162"
     inkscape:cy="150.03506"
     inkscape:window-x="2552"
     inkscape:window-y="-8"
     inkscape:window-maximized="1"
     inkscape:current-layer="svg2"
     inkscape:snap-center="true"
     inkscape:snap-object-midpoints="true"
     inkscape:snap-bbox="true"
     inkscape:bbox-paths="true"
     inkscape:bbox-nodes="true"
     inkscape:snap-bbox-edge-midpoints="true"
     inkscape:snap-bbox-midpoints="true">
    <inkscape:grid
       type="xygrid"
       id="grid4638" />
  </sodipodi:namedview>
  <defs
     id="defs4">
    <style
       id="style6">.cls-1{fill:none;}.cls-2{opacity:0.85;}.cls-3{fill:#1a1a1a;}.cls-4{font-size:90px;font-family:SegoeUI-Bold, Segoe UI;letter-spacing:0.44em;}.cls-20,.cls-4{fill:#fff;}.cls-4,.cls-7{font-weight:700;}.cls-5{letter-spacing:0.46em;}.cls-6{letter-spacing:0.48em;}.cls-7{font-size:44.53px;fill:#fff69f;font-family:SegoeUI-BoldItalic, Segoe UI;font-style:italic;letter-spacing:0.32em;}.cls-8{letter-spacing:0.34em;}.cls-9{letter-spacing:0.32em;}.cls-10{letter-spacing:0.3em;}.cls-11{letter-spacing:0.28em;}.cls-12{letter-spacing:0.29em;}.cls-13{letter-spacing:0.26em;}.cls-14{letter-spacing:0.28em;}.cls-15{letter-spacing:0.28em;}.cls-16{letter-spacing:0.25em;}.cls-17{letter-spacing:0.24em;}.cls-18{letter-spacing:0.3em;}.cls-19{clip-path:url(#clip-path);}.cls-21{fill:url(#linear-gradient);}</style>
    <clipPath
       id="clip-path">
      <path
         class="cls-1"
         d="m 209.59,327.52 a 68.9,68.9 0 0 0 36.41,36.39 66.33,66.33 0 0 0 26.65,5.39 l 9.28,0 a 19.07,19.07 0 0 0 7.85,-1.61 38.38,38.38 0 0 0 6.88,-3.95 72.39,72.39 0 0 0 6.3,-5.1 c 2,-1.84 4,-3.54 6,-5.1 a 38,38 0 0 1 6.08,-4 14.13,14.13 0 0 1 13.06,0 38.45,38.45 0 0 1 6.08,4 c 2,1.56 4,3.26 6,5.1 a 74.06,74.06 0 0 0 6.31,5.1 38.29,38.29 0 0 0 6.87,3.95 19.14,19.14 0 0 0 7.85,1.61 l 9.29,0 a 66.4,66.4 0 0 0 26.65,-5.39 68.9,68.9 0 0 0 36.39,-36.39 66.32,66.32 0 0 0 5.38,-26.65 l 0,-29.45"
         id="path9"
         inkscape:connector-curvature="0"
         style="opacity:0.85;fill:none" />
    </clipPath>
    <linearGradient
       id="linear-gradient"
       x1="295.39999"
       y1="273.89999"
       x2="351.95999"
       y2="273.89999"
       gradientUnits="userSpaceOnUse">
      <stop
         offset="0"
         stop-color="#ffc2fc"
         id="stop12" />
      <stop
         offset="1"
         stop-color="#daff94"
         id="stop14" />
    </linearGradient>
    <style
       id="style4262">.cls-1{fill:none;}.cls-2{opacity:0.85;}.cls-3{fill:#1a1a1a;}.cls-4{font-size:94px;font-family:SegoeUI-Bold, Segoe UI;letter-spacing:0.38em;}.cls-18,.cls-4{fill:#fff;}.cls-4,.cls-7{font-weight:700;}.cls-5{letter-spacing:0.4em;}.cls-6{letter-spacing:0.42em;}.cls-7{font-size:44.53px;fill:#fff69f;font-family:SegoeUI-BoldItalic, Segoe UI;font-style:italic;}.cls-16,.cls-7{letter-spacing:0.24em;}.cls-8{letter-spacing:0.26em;}.cls-9{letter-spacing:0.22em;}.cls-10{letter-spacing:0.2em;}.cls-11{letter-spacing:0.21em;}.cls-12{letter-spacing:0.18em;}.cls-13{letter-spacing:0.2em;}.cls-14{letter-spacing:0.2em;}.cls-15{letter-spacing:0.19em;}.cls-17{clip-path:url(#clip-path);}.cls-19{fill:url(#linear-gradient);}</style>
    <clipPath
       id="clip-path-7">
      <path
         id="path4265"
         d="m 414,407.09 a 68.9,68.9 0 0 0 36.39,36.39 66.14,66.14 0 0 0 26.61,5.39 l 9.29,0 a 19.13,19.13 0 0 0 7.85,-1.6 38.43,38.43 0 0 0 6.88,-4 71.69,71.69 0 0 0 6.3,-5.1 q 3,-2.74 6,-5.1 a 38.55,38.55 0 0 1 6.07,-3.95 14.07,14.07 0 0 1 13.07,0 39,39 0 0 1 6.07,3.95 c 2,1.57 4,3.27 6,5.1 a 70.25,70.25 0 0 0 6.3,5.1 38.43,38.43 0 0 0 6.88,4 19.1,19.1 0 0 0 7.85,1.6 l 9.28,0 a 66.16,66.16 0 0 0 26.65,-5.39 68.9,68.9 0 0 0 36.39,-36.39 66.31,66.31 0 0 0 5.39,-26.64 l 0,-29.45"
         class="cls-1"
         inkscape:connector-curvature="0"
         style="opacity:0.85;fill:none" />
    </clipPath>
    <linearGradient
       gradientUnits="userSpaceOnUse"
       y2="353.47"
       x2="556.34003"
       y1="353.47"
       x1="499.76999"
       id="linear-gradient-4">
      <stop
         id="stop4268"
         stop-color="#ffc2fc"
         offset="0" />
      <stop
         id="stop4270"
         stop-color="#daff94"
         offset="1" />
    </linearGradient>
    <style
       id="style4375">.cls-1{opacity:0.85;}.cls-2{font-size:90px;font-family:SegoeUI-Bold, Segoe UI;letter-spacing:0.44em;}.cls-2,.cls-5{font-weight:700;}.cls-3{letter-spacing:0.46em;}.cls-4{letter-spacing:0.48em;}.cls-5{font-size:44.53px;fill:#a3a3a3;font-family:SegoeUI-BoldItalic, Segoe UI;font-style:italic;letter-spacing:0.32em;}.cls-6{letter-spacing:0.34em;}.cls-7{letter-spacing:0.32em;}.cls-8{letter-spacing:0.3em;}.cls-9{letter-spacing:0.28em;}.cls-10{letter-spacing:0.29em;}.cls-11{letter-spacing:0.26em;}.cls-12{letter-spacing:0.28em;}.cls-13{letter-spacing:0.28em;}.cls-14{letter-spacing:0.25em;}.cls-15{letter-spacing:0.24em;}.cls-16{letter-spacing:0.3em;}.cls-17{fill:url(#linear-gradient);}.cls-18{fill:#191919;}</style>
    <linearGradient
       gradientUnits="userSpaceOnUse"
       y2="309.64999"
       x2="436.44"
       y1="309.64999"
       x1="211.44"
       id="linear-gradient-6">
      <stop
         id="stop4378"
         stop-color="#ffc2fc"
         offset="0" />
      <stop
         id="stop4380"
         stop-color="#daff94"
         offset="1" />
    </linearGradient>
    <clipPath
       id="clipPath4489"
       clipPathUnits="userSpaceOnUse">
      <path
         inkscape:connector-curvature="0"
         id="path4491"
         d="m 516.581,225.45 c -36,-9 -108,9 -108,9 l 0,0 0,-0.611 c 0,-9.475 1.795,-18.357 5.386,-26.646 l 0,0 c 3.591,-8.293 8.482,-15.532 14.671,-21.72 l 0,0 c 6.189,-6.19 13.428,-11.081 21.719,-14.671 l 0,0 c 8.29,-3.592 17.172,-5.387 26.647,-5.387 l 0,0 9.284,0 c 2.827,0 5.444,0.534 7.852,1.605 l 0,0 c 2.406,1.069 4.699,2.387 6.876,3.955 l 0,0 c 2.178,1.564 4.279,3.266 6.304,5.099 l 0,0 c 2.023,1.834 4.029,3.534 6.017,5.1 l 0,0 c 1.986,1.566 4.012,2.883 6.075,3.955 l 0,0 c 2.063,1.068 4.24,1.604 6.532,1.604 l 0,0 c 2.293,0 4.471,-0.536 6.534,-1.604 l 0,0 c 2.063,-1.072 4.087,-2.389 6.074,-3.955 l 0,0 c 1.986,-1.566 3.991,-3.266 6.017,-5.1 l 0,0 c 2.023,-1.833 4.127,-3.535 6.304,-5.099 l 0,0 c 2.177,-1.568 4.47,-2.886 6.876,-3.955 l 0,0 c 2.407,-1.071 5.024,-1.605 7.851,-1.605 l 0,0 9.284,0 c 9.474,0 18.356,1.795 26.648,5.387 l 0,0 c 8.289,3.59 15.53,8.481 21.719,14.671 l 0,0 c 6.188,6.188 11.078,13.427 14.671,21.72 l 0,0 c 3.59,8.289 5.386,17.171 5.386,26.646 l 0,0 0,29.456 c 0,2.826 -0.536,5.577 -1.604,8.252 l 0,0 c -0.503,1.255 -1.115,2.426 -1.819,3.53 l 0,0 C 615.816,241.994 516.581,225.45 516.581,225.45" />
    </clipPath>
    <clipPath
       id="clipPath4505"
       clipPathUnits="userSpaceOnUse">
      <path
         inkscape:connector-curvature="0"
         id="path4507"
         d="m 0,614.286 1622,0 L 1622,0 0,0 0,614.286 Z" />
    </clipPath>
    <linearGradient
       id="linearGradient4533"
       spreadMethod="pad"
       gradientTransform="matrix(56.563309,0,0,-56.563309,499.77417,260.8172)"
       gradientUnits="userSpaceOnUse"
       y2="0"
       x2="1"
       y1="0"
       x1="0">
      <stop
         id="stop4535"
         offset="0"
         style="stop-opacity:1;stop-color:#ffc2fc" />
      <stop
         id="stop4537"
         offset="1"
         style="stop-opacity:1;stop-color:#daff94" />
    </linearGradient>
  </defs>
  <title
     id="title16">MRTK_Logo_WhiteOnBlack</title>
  <g
     id="g4176">
    <g
       style="fill:#3ba6f3;fill-opacity:1"
       transform="matrix(0.74833416,0,0,0.74833416,-74.78304,-156.63585)"
       id="g4612">
      <g
         id="g4485"
         transform="matrix(1.25,0,0,-1.25,-383.77887,637.90749)"
         style="fill:#3ba6f3;fill-opacity:1">
        <g
           id="g4487"
           clip-path="url(#clipPath4489)"
           style="fill:#3ba6f3;fill-opacity:1">
          <g
             id="g4493"
             style="fill:#3ba6f3;fill-opacity:1">
            <g
               id="g4495"
               transform="scale(1,-1)"
               style="fill:#3ba6f3;fill-opacity:1">
              <g
                 id="g4497"
                 style="fill:#3ba6f3;fill-opacity:1">
                <path
                   d="m 408.581,-165.415 c 0,-36.5537 0,-73.10838 0,-109.66209 78.24223,0 156.48495,0 234.72718,0 0,36.55371 0,73.10839 0,109.66209 -78.24223,0 -156.48495,0 -234.72718,0 z"
                   style="fill:#3ba6f3;fill-opacity:1;fill-rule:nonzero;stroke:none"
                   id="path4499"
                   inkscape:connector-curvature="0" />
              </g>
            </g>
          </g>
        </g>
      </g>
      <g
         id="g4509"
         transform="matrix(1.25,0,0,-1.25,402.01863,312.45962)"
         style="fill:#3ba6f3;fill-opacity:1">
        <path
           d="m 0,0 c -9.782,-7.03 -20.02,-13.237 -30.717,-18.624 -10.698,-5.387 -21.719,-9.914 -33.065,-13.582 -11.347,-3.667 -22.943,-6.458 -34.785,-8.367 -11.845,-1.91 -23.765,-2.865 -35.759,-2.865 -12.074,0 -24.012,0.955 -35.818,2.865 -11.805,1.909 -23.438,4.7 -34.899,8.367 l -15.014,5.73 0,29.456 c 0,2.826 0.553,5.578 1.661,8.252 1.107,2.674 2.654,5.004 4.643,6.992 2.751,2.751 5.806,4.851 9.168,6.303 4.127,1.834 8.883,3.419 14.27,4.757 5.387,1.335 11.118,2.464 17.192,3.381 6.075,0.917 12.321,1.68 18.739,2.292 6.419,0.611 12.702,1.069 18.854,1.375 6.15,0.306 12.034,0.517 17.651,0.631 5.615,0.115 10.676,0.173 15.186,0.173 4.43,0 9.473,-0.058 15.129,-0.173 5.653,-0.114 11.556,-0.325 17.708,-0.631 6.149,-0.306 12.435,-0.764 18.853,-1.375 6.418,-0.612 12.665,-1.375 18.739,-2.292 6.075,-0.917 11.806,-2.046 17.192,-3.381 5.387,-1.338 10.143,-2.923 14.27,-4.757 3.284,-1.452 6.378,-3.552 9.283,-6.303 1.986,-1.988 3.584,-4.29 4.585,-6.992 0.376,-1.016 0.283,-0.671 0.608,-2.262 L 0,0 Z m -205.387,-16.389 c 11.462,-3.974 23.152,-6.974 35.072,-8.997 11.92,-2.026 23.915,-3.038 35.989,-3.038 22.616,0 44.602,3.4 65.959,10.201 21.356,6.8 41.241,16.809 59.656,30.029 -6.418,2.367 -13.658,4.24 -21.719,5.616 -8.062,1.375 -16.332,2.443 -24.814,3.209 -8.481,0.763 -16.83,1.261 -25.043,1.489 -8.214,0.231 -15.684,0.344 -22.406,0.344 -4.127,0 -8.826,-0.057 -14.098,-0.171 -5.272,-0.115 -10.831,-0.307 -16.676,-0.573 -5.845,-0.269 -11.825,-0.67 -17.937,-1.204 -6.114,-0.536 -12.054,-1.223 -17.823,-2.063 -5.769,-0.842 -11.214,-1.891 -16.332,-3.152 -5.119,-1.261 -9.627,-2.733 -13.524,-4.412 -1.682,-0.765 -3.152,-1.778 -4.413,-3.037 -1.26,-1.261 -1.891,-2.885 -1.891,-4.872 l 0,-19.369 z"
           style="fill:#3ba6f3;fill-opacity:1;fill-rule:nonzero;stroke:none"
           id="path4511"
           inkscape:connector-curvature="0" />
      </g>
      <g
         id="g4521"
         transform="matrix(1.25,0,0,-1.25,-383.77887,637.90749)"
         style="fill:#3ba6f3;fill-opacity:1">
        <g
           id="g4523"
           style="fill:#3ba6f3;fill-opacity:1">
          <g
             id="g4529"
             style="fill:#3ba6f3;fill-opacity:1">
            <g
               id="g4531"
               style="fill:#3ba6f3;fill-opacity:1">
              <path
                 d="m 518.61,268.152 c -1.988,0 -3.707,-0.726 -5.158,-2.177 l 0,0 c -1.452,-1.452 -2.178,-3.171 -2.178,-5.158 l 0,0 c 0,-1.987 0.726,-3.707 2.178,-5.158 l 0,0 c 1.451,-1.452 3.17,-2.177 5.158,-2.177 l 0,0 14.67,0 c 1.986,0 3.705,0.725 5.158,2.177 l 0,0 c 1.45,1.451 2.177,3.171 2.177,5.158 l 0,0 c 0,1.987 -0.727,3.706 -2.177,5.158 l 0,0 c -1.453,1.451 -3.172,2.177 -5.158,2.177 l 0,0 -14.67,0 z"
                 style="fill:#3ba6f3;fill-opacity:1;stroke:none"
                 id="path4539"
                 inkscape:connector-curvature="0" />
            </g>
          </g>
        </g>
      </g>
    </g>
    <rect
       y="186"
       x="20"
       height="25"
       width="25"
       id="rect4640"
       style="fill:#2f8ace;fill-opacity:1" />
    <rect
       y="186"
       x="68.75"
       height="25"
       width="25"
       id="rect4640-7"
       style="fill:#b70000;fill-opacity:1" />
    <rect
       y="186"
       x="117.5"
       height="25"
       width="25"
       id="rect4640-0"
       style="fill:#facb00;fill-opacity:1" />
    <rect
       y="186"
       x="166.25"
       height="25"
       width="25"
       id="rect4640-4"
       style="fill:#2e9933;fill-opacity:1" />
    <rect
       y="186"
       x="215"
       height="25"
       width="25"
       id="rect4640-48"
       style="fill:#f56300;fill-opacity:0.88627451" />
  </g>
</svg>
